<?xml version="1.0" encoding="utf-8"?>
<!-- Generator: Adobe Illustrator 22.0.0, SVG Export Plug-In . SVG Version: 6.00 Build 0)  -->
<svg version="1.1" id="pearl" xmlns="http://www.w3.org/2000/svg" xmlns:xlink="http://www.w3.org/1999/xlink" x="0px" y="0px"
	 viewBox="0 0 293.5 83" enable-background="new 0 0 293.5 83" xml:space="preserve">
<g id="bg" display="none">
	<path display="inline" fill="#436894" d="M-13.5-5.5v144h320v-144H-13.5z M143.5,57.5c8-3,14-7,19-13
		C157.5,50.5,151.5,54.5,143.5,57.5z"/>
</g>
<g>
	<path fill="#F1F2F2" d="M18.9,53.1c-1.9,0-3.6-0.2-5.4-0.6s-3.3-1.1-4.6-2.1c-1.4-1-2.5-2.3-3.3-3.9c-0.8-1.6-1.2-3.6-1.2-6V24
		c0-1,0.4-2.1,1.1-3.2c0.8-1.1,1.7-2.1,2.8-3.1c1.1-1,2.3-1.8,3.6-2.4c1.3-0.6,2.6-0.9,3.8-0.9h75.8v16.1H25.3V37H77
		c1.9,0,3.7,0.2,5.4,0.6c1.8,0.4,3.3,1.1,4.7,2.1c1.4,1,2.4,2.3,3.3,3.9c0.8,1.6,1.2,3.5,1.2,5.9v16.6c0,1-0.4,2.1-1.1,3.2
		c-0.7,1.1-1.6,2.1-2.7,3.1c-1.1,0.9-2.3,1.7-3.6,2.3c-1.3,0.6-2.6,0.9-3.9,0.9H4.4V59.5h66.3v-6.4H18.9z"/>
	<path fill="#F1F2F2" d="M189.8,17.9c2.4,2.3,3.6,5.3,3.6,8.9v35.5c0,4.1-1.5,7.3-4.6,9.7c-3,2.4-7.2,3.6-12.6,3.6h-56.5
		c-5.4,0-9.6-1.2-12.6-3.6c-3-2.4-4.6-5.6-4.6-9.7V39.2h21v20.5h48.8V30.5h-69.8v-3.6c0-3.6,1.2-6.6,3.6-8.9c2.4-2.3,6.4-3.4,12-3.4
		h59.8C183.4,14.5,187.4,15.6,189.8,17.9z"/>
	<path fill="#F1F2F2" d="M267.7,39.7v-9.2h-63.9v-16h70.6c5.1,0,8.8,1.1,11,3.4c2.2,2.3,3.3,5.3,3.3,8.9v15.6c0,4.1-1.6,7.2-4.7,9.4
		c-3.1,2.2-7.4,3.4-12.8,3.4l20.4,20.4h-26l-20.5-20h-20.5v20h-20.9V39.7H267.7z"/>
</g>
<g id="Layer_5">
	<path fill-rule="evenodd" clip-rule="evenodd" fill="#00A94F" d="M161,35.2c-1.2-1-2.6-2-4-3.2c0,0,0,0,0,0
		c-0.1-0.1-0.3-0.2-0.4-0.3c0,0-0.1-0.1-0.1-0.1c-1-0.8-2.1-1.6-3.1-2.4c-6.6-5-13.1-10.2-16.5-14.4c-0.1-0.1-0.1-0.2-0.2-0.3l0,0
		c-1.8-2.3-3.1-4.8-3.9-7.2c0,0,0-0.1,0-0.1c-0.1-0.4-0.2-0.7-0.3-1.1c-0.1-0.4-0.2-0.8-0.3-1.2c-0.3,0.4-0.5,0.9-0.8,1.3
		c-0.1,0.2-0.2,0.3-0.3,0.5c-0.2,0.3-0.3,0.6-0.5,1c-0.2,0.4-0.4,0.8-0.5,1.2c-0.1,0.2-0.2,0.4-0.3,0.6c-0.1,0.3-0.3,0.7-0.4,1
		c0,0.1-0.1,0.1-0.1,0.2c-0.4,1.2-0.8,2.5-1.1,3.8c0,0,0,0,0,0l0,0c-0.4,1.8-0.6,3.8-0.7,6c-0.1,3.4,0.7,6.8,2.2,10h0
		c0,0.1,0.1,0.2,0.1,0.3c0.2,0.5,0.5,1,0.7,1.5c0.1,0.1,0.1,0.3,0.2,0.4c0.3,0.6,0.7,1.2,1,1.8c0.1,0.2,0.2,0.4,0.3,0.6
		c0.3,0.4,0.5,0.8,0.8,1.3c0.1,0.2,0.3,0.4,0.4,0.6c0.3,0.5,0.7,1,1,1.4c0.2,0.2,0.3,0.5,0.5,0.7c0.3,0.4,0.7,0.8,1,1.3
		c0.2,0.3,0.4,0.5,0.6,0.8c0.3,0.3,0.5,0.6,0.8,1c0.2,0.3,0.4,0.5,0.7,0.8c0.4,0.5,0.9,1,1.3,1.4h0c5.4,5.7,11.7,10.9,17.2,15.5
		h15.9v-6.2C170.2,46.1,165.7,39.2,161,35.2z"/>
</g>
</svg>
